<svg width="105" height="56" viewBox="0 0 105 56" fill="none" xmlns="http://www.w3.org/2000/svg">
<g filter="url(#filter0_d)">
<path d="M70.6909 21.075C66.8125 21.075 63.6614 24.2261 63.6614 28.1045C63.6614 31.9828 66.8125 35.134 70.6909 35.134C74.5692 35.1256 77.712 31.9828 77.7203 28.1045C77.7203 24.2261 74.5776 21.075 70.6909 21.075ZM70.6825 33.479C67.7152 33.479 65.308 31.0717 65.308 28.1045V28.0961C65.308 25.1288 67.7069 22.73 70.6741 22.73H70.6825C73.6498 22.73 76.057 25.1372 76.057 28.1045C76.057 31.0717 73.6498 33.479 70.6825 33.479Z" fill="#46BBB3"/>
<path d="M88.1602 21.075C86.0873 21.075 84.123 21.9944 82.794 23.5826V14.8647C82.794 14.4049 82.4179 14.0288 81.9582 14.0288C81.4984 14.0288 81.1223 14.4049 81.1223 14.8647V28.1045C81.1223 31.9828 84.2735 35.134 88.1518 35.134C92.0301 35.134 95.1813 31.9828 95.1813 28.1045C95.1813 24.2262 92.0385 21.0834 88.1602 21.075ZM88.1685 33.479C85.2013 33.479 82.794 31.0718 82.794 28.1045C82.794 25.1372 85.2013 22.73 88.1685 22.73C91.1358 22.73 93.543 25.1372 93.543 28.1045C93.543 31.0718 91.1358 33.479 88.1685 33.479Z" fill="#46BBB3"/>
<path d="M59.3985 21.3091C58.9388 21.3091 58.5626 21.6852 58.5626 22.1449V38.8619C58.5626 39.6476 58.2952 40.4166 57.802 41.0351C57.5345 41.4112 57.6181 41.9295 57.9859 42.2053C58.3119 42.4393 58.7632 42.4143 59.0558 42.1301L59.1059 42.0716L59.1561 42.0047C59.8582 41.1103 60.2427 39.9987 60.2427 38.8619C60.2427 38.77 60.2427 38.6864 60.2427 38.5944L60.2343 22.1449C60.2343 21.6852 59.8582 21.3091 59.3985 21.3091Z" fill="#46BBB3"/>
<path d="M59.4569 14.2462C58.9972 14.2462 58.6211 14.6223 58.6211 15.082V16.2271C58.6211 16.6869 58.9972 17.063 59.4569 17.063C59.9167 17.063 60.2928 16.6869 60.2928 16.2271V15.0737C60.2928 14.614 59.9167 14.2462 59.4569 14.2462Z" fill="#46BBB3"/>
<path d="M48.1146 21.0753C46.9612 21.0753 45.8746 21.3595 44.9133 21.8527C41.7873 13.2184 32.5344 8.22833 23.4655 10.5854C13.8532 13.0846 8.07749 22.9142 10.585 32.5348C13.0842 42.1554 22.9138 47.9228 32.5344 45.4152C38.2265 43.9358 42.7986 39.7649 44.8381 34.3235C45.8161 34.8418 46.9277 35.1343 48.1146 35.1343C51.993 35.1343 55.1441 31.9832 55.1441 28.1048C55.1441 24.2265 52.0013 21.0753 48.1146 21.0753ZM37.6665 34.0978C37.7 34.5576 37.3573 34.9671 36.8975 35.0006C36.4378 35.034 36.0283 34.6913 35.9948 34.2316C35.9948 34.1898 35.9948 34.1396 35.9948 34.0978V26.3245C35.9948 24.4438 34.5321 22.8808 32.6514 22.7637H32.4425C30.7123 22.7637 29.2328 24.0008 28.9319 25.6976C28.8901 25.9065 28.8734 26.1155 28.8734 26.3245V33.2118V33.2536C28.8483 33.6966 28.4806 34.0477 28.0376 34.0477C27.8871 34.0477 27.7366 34.0059 27.6113 33.9307C27.3689 33.7886 27.2184 33.5378 27.2017 33.2536V33.2118V26.3245C27.2017 26.1155 27.1766 25.9065 27.1432 25.6976C26.8423 24.0008 25.3628 22.7637 23.6326 22.7637H23.4237C21.543 22.8808 20.0803 24.4438 20.0803 26.3245V34.0978C20.0803 34.1396 20.0803 34.1898 20.0803 34.2316C20.0468 34.6913 19.6373 35.034 19.1776 35.0006C18.7178 34.9671 18.3751 34.5576 18.4086 34.0978V26.3245C18.4086 26.0403 18.4253 25.7644 18.4754 25.4886C18.885 22.9476 21.0833 21.0753 23.6577 21.0837C24.2261 21.0837 24.7945 21.1756 25.3294 21.3595C25.7557 21.5016 26.1653 21.7022 26.533 21.953L27.4274 22.5464C27.6113 22.6718 27.8286 22.7387 28.0459 22.7387C28.2716 22.7387 28.4889 22.6718 28.6728 22.5464L29.5672 21.953C29.9266 21.6855 30.3111 21.4682 30.729 21.3094C31.2723 21.1338 31.8323 21.0335 32.4007 21.0335C35.0002 21.0252 37.2068 22.9226 37.5997 25.4886C37.6415 25.7644 37.6665 26.0486 37.6665 26.3245V34.0978ZM48.1146 33.4793C47.0949 33.4793 46.1504 33.1868 45.3313 32.702C45.1474 32.5933 44.9718 32.4679 44.8047 32.3426C44.7963 32.3342 44.7796 32.3258 44.7712 32.3175C44.5957 32.1754 44.4202 32.0249 44.2614 31.8661L44.253 31.8578C44.1026 31.7073 43.9688 31.5485 43.8435 31.3813C43.8184 31.3479 43.8017 31.3228 43.7766 31.2894C43.6596 31.1306 43.5509 30.9634 43.4506 30.7962C43.4422 30.7795 43.4339 30.7712 43.4255 30.7545C43.2082 30.3783 43.0494 29.9688 42.9324 29.5508C42.924 29.509 42.9073 29.4672 42.8989 29.4255C42.8572 29.2583 42.8237 29.0911 42.7986 28.9156C42.7903 28.8654 42.7819 28.8153 42.7736 28.7651C42.7485 28.5478 42.7318 28.3305 42.7318 28.1132C42.7318 27.8875 42.7485 27.6618 42.7736 27.4445C42.7819 27.4027 42.7819 27.3693 42.7903 27.3275C42.8154 27.1352 42.8571 26.943 42.9073 26.7507C42.9157 26.7257 42.9157 26.7089 42.924 26.6839C43.2918 25.3465 44.1694 24.1847 45.4065 23.4659C45.4065 23.4659 45.4065 23.4659 45.4065 23.4575C46.2005 22.9978 47.12 22.7303 48.0979 22.7303H48.1063C51.0735 22.7303 53.4808 25.1376 53.4808 28.1048C53.4891 31.0721 51.0819 33.4793 48.1146 33.4793Z" fill="#46BBB3"/>
<path d="M19.1775 35.0003C19.6372 35.0337 20.0468 34.691 20.0802 34.2313C20.0802 34.1895 20.0802 34.1393 20.0802 34.0975V26.3242C20.0802 24.4435 21.5429 22.8805 23.4236 22.7634H23.6326C25.3628 22.7634 26.8422 24.0005 27.1431 25.6973C27.1766 25.9062 27.2016 26.1152 27.2016 26.3242V33.2115V33.2533C27.2183 33.5375 27.3688 33.7883 27.6112 33.9304C27.7366 34.0056 27.887 34.0474 28.0375 34.0474C28.4805 34.0474 28.8483 33.6963 28.8733 33.2533V33.2115V26.3242C28.8733 26.1152 28.89 25.9062 28.9318 25.6973C29.2327 24.0005 30.7122 22.7634 32.4424 22.7634H32.6514C34.532 22.8805 35.9948 24.4435 35.9948 26.3242V34.0975C35.9948 34.1393 35.9948 34.1895 35.9948 34.2313C36.0282 34.691 36.4378 35.0337 36.8975 35.0003C37.3572 34.9668 37.6999 34.5573 37.6665 34.0975V26.3242C37.6665 26.0483 37.6414 25.7641 37.5996 25.4883C37.2067 22.9222 35.0001 21.0249 32.4006 21.0332C31.8322 21.0332 31.2722 21.1335 30.7289 21.3091C30.311 21.4679 29.9265 21.6852 29.5671 21.9527L28.6727 22.5461C28.4888 22.6715 28.2715 22.7384 28.0458 22.7384C27.8285 22.7384 27.6112 22.6715 27.4273 22.5461L26.533 21.9527C26.1652 21.7019 25.7556 21.5013 25.3293 21.3592C24.7944 21.1753 24.226 21.0834 23.6576 21.0834C21.0832 21.075 18.8849 22.9473 18.4754 25.4883C18.4252 25.7641 18.4085 26.04 18.4085 26.3242V34.0975C18.3751 34.5656 18.7178 34.9668 19.1775 35.0003Z" fill="white"/>
</g>
<defs>
<filter id="filter0_d" x="-2" y="-2" width="109" height="60" filterUnits="userSpaceOnUse" color-interpolation-filters="sRGB">
<feFlood flood-opacity="0" result="BackgroundImageFix"/>
<feColorMatrix in="SourceAlpha" type="matrix" values="0 0 0 0 0 0 0 0 0 0 0 0 0 0 0 0 0 0 127 0" result="hardAlpha"/>
<feOffset/>
<feGaussianBlur stdDeviation="1"/>
<feColorMatrix type="matrix" values="0 0 0 0 1 0 0 0 0 1 0 0 0 0 1 0 0 0 0.5 0"/>
<feBlend mode="normal" in2="BackgroundImageFix" result="effect1_dropShadow"/>
<feBlend mode="normal" in="SourceGraphic" in2="effect1_dropShadow" result="shape"/>
</filter>
</defs>
</svg>
